<svg xmlns="http://www.w3.org/2000/svg" version="1.1" width="100" height="100" viewBox="0 0 100 100"><rect x="0" y="0" width="100" height="100" fill="#ffffff"/><g transform="scale(4.762)"><g transform="translate(0,0)"><path fill-rule="evenodd" d="M10 0L10 1L11 1L11 0ZM12 0L12 2L13 2L13 0ZM8 2L8 3L9 3L9 2ZM10 2L10 3L11 3L11 2ZM12 3L12 4L11 4L11 5L10 5L10 4L9 4L9 6L8 6L8 8L4 8L4 9L3 9L3 8L0 8L0 11L1 11L1 12L0 12L0 13L2 13L2 11L3 11L3 13L5 13L5 12L4 12L4 11L5 11L5 10L4 10L4 9L9 9L9 6L10 6L10 9L11 9L11 10L10 10L10 11L11 11L11 14L12 14L12 15L10 15L10 13L9 13L9 11L8 11L8 12L6 12L6 13L8 13L8 17L9 17L9 18L8 18L8 21L11 21L11 20L10 20L10 16L11 16L11 18L12 18L12 17L13 17L13 14L14 14L14 13L16 13L16 16L15 16L15 15L14 15L14 16L15 16L15 18L14 18L14 19L12 19L12 21L13 21L13 20L14 20L14 21L15 21L15 20L14 20L14 19L15 19L15 18L16 18L16 21L17 21L17 19L18 19L18 21L19 21L19 20L20 20L20 21L21 21L21 18L20 18L20 17L19 17L19 16L20 16L20 15L19 15L19 14L20 14L20 13L21 13L21 12L19 12L19 10L21 10L21 9L19 9L19 8L18 8L18 9L15 9L15 8L12 8L12 9L11 9L11 6L12 6L12 7L13 7L13 6L12 6L12 5L13 5L13 3ZM1 9L1 11L2 11L2 9ZM12 9L12 11L14 11L14 12L12 12L12 14L13 14L13 13L14 13L14 12L15 12L15 11L16 11L16 10L15 10L15 11L14 11L14 10L13 10L13 9ZM18 9L18 10L17 10L17 11L18 11L18 10L19 10L19 9ZM3 10L3 11L4 11L4 10ZM6 10L6 11L7 11L7 10ZM18 12L18 13L19 13L19 12ZM17 14L17 15L18 15L18 16L17 16L17 17L16 17L16 18L17 18L17 17L18 17L18 16L19 16L19 15L18 15L18 14ZM18 18L18 19L20 19L20 18ZM0 0L0 7L7 7L7 0ZM1 1L1 6L6 6L6 1ZM2 2L2 5L5 5L5 2ZM14 0L14 7L21 7L21 0ZM15 1L15 6L20 6L20 1ZM16 2L16 5L19 5L19 2ZM0 14L0 21L7 21L7 14ZM1 15L1 20L6 20L6 15ZM2 16L2 19L5 19L5 16Z" fill="#000000"/></g></g></svg>